<svg width="177" height="59" viewBox="0 0 177 59" fill="none" xmlns="http://www.w3.org/2000/svg">
<g clip-path="url(#clip0_603_2928)">
<path d="M0.0605469 58.0957H13.5451V38.4639H33.2367V28.3182H13.5451V19.439H35.1923V9.17773H0.0605469V58.0957Z" fill="white"/>
<path d="M53.576 22.6982H40.2715V58.0998H53.576V22.6982Z" fill="white"/>
<path d="M53.576 9.17773H40.2715V19.439H53.576V9.17773Z" fill="white"/>
<path d="M74.449 9.17773H61.1445V58.1005H74.449V9.17773Z" fill="white"/>
<path d="M115.769 22.6982H102.464V42.277C102.464 47.5208 101.214 49.2591 98.0766 49.2591C95.0751 49.2591 94.1552 47.0008 94.1552 43.7842V22.6982H80.875V45.9751C80.875 54.3681 84.9518 58.981 92.628 58.981C97.1423 58.981 100.212 57.7147 102.512 54.3632C102.556 55.307 102.625 57.2476 102.785 58.0998H115.837C115.769 54.7244 115.769 49.9284 115.769 46.7889V22.6982Z" fill="white"/>
<path d="M165.407 21.8418C159.462 21.8418 156.505 24.3216 154.437 26.7148C153.255 24.4516 150.667 21.8418 145.311 21.8418C140.169 21.8418 137.182 24.0472 135.241 26.474C135.173 25.2172 134.969 23.5078 134.833 22.6989H122.078C122.146 25.7132 122.146 29.1369 122.146 32.3871V58.1005H135.265V37.7368C135.265 33.1432 136.491 31.4915 139.434 31.4915C142.412 31.4915 143.088 33.6728 143.088 36.3308V58.0957H156.164V37.4239C156.164 33.3598 157.283 31.4482 160.264 31.4482C163.11 31.4482 163.986 33.5957 163.986 36.2104V58.0957H176.994V35.0692C176.999 25.9973 172.066 21.8418 165.407 21.8418Z" fill="white"/>
<path d="M166.635 0.0185547V3.76963H122.086V6.52394H166.635V10.275H176.997V0.0185547H166.635Z" fill="#F39200"/>
</g>
<defs>
<clipPath id="clip0_603_2928">
<rect width="177" height="59" fill="white"/>
</clipPath>
</defs>
</svg>
